<svg xmlns="http://www.w3.org/2000/svg" viewBox="0 0 581.64 91.32"><defs><style>.cls-1{fill:#fff;}</style></defs><g id="Layer_2" data-name="Layer 2"><g id="Layer_1-2" data-name="Layer 1"><path class="cls-1" d="M84.22,90h-29l-.77-1.92L45,65.52H17.41L10.09,88.08h0L9.4,90H0l.85-1.92h0L39,1.2h6.24l38,86.88ZM44.05,63.36,29.29,28.56,18,63.36Z"/><path class="cls-1" d="M162.13,57.24c0,21.72-12.6,34-36.6,34a111.12,111.12,0,0,1-29.64-4.56v-70L89.05,10.8,119.89,0V39.48c6.36-6.48,13.8-10.68,20.88-10.68C152.89,28.8,162.13,38.64,162.13,57.24Zm-25.68,6.84C136.45,48,133,40,124.93,40a12.42,12.42,0,0,0-5,1.2V87a10.3,10.3,0,0,0,5.88,1.8C132,88.8,136.45,81.36,136.45,64.08Z"/><path class="cls-1" d="M170.53,59.64c0-17.16,13.44-30.84,33-30.84,19.8,0,34.08,12,34.08,30.84,0,17.52-11.16,31.56-34,31.56C186.37,91.2,170.53,79,170.53,59.64ZM222,80.76c0-10.08-20.16-47.64-30.72-47.64-3,0-4.8,2.16-4.8,5.88,0,11.76,20.76,47.88,30.6,47.88C220.33,86.88,222,84.84,222,80.76Z"/><path class="cls-1" d="M310.2,90h-24V80.76c-7.92,5.76-14.76,10.56-21.48,10.56-10.8,0-15.48-6.24-15.48-20.52V45l-6.84-5.88,30.84-10.8V66c0,10.08.84,14,6.84,14a19.08,19.08,0,0,0,6.12-1.2V44.4l-6.84-5.88,30.84-10.8V90Z"/><path class="cls-1" d="M370.33,79C365.89,86,358,91.2,346.93,91.2c-14.28,0-19.92-8.4-19.92-24V33.12h-9.24V33L351,6.84V31.2h16.92v1.92H351v28c0,13.92,3.24,19.08,12.12,19.08a17.69,17.69,0,0,0,7.08-1.32Z"/><path class="cls-1" d="M515.41,90h-26.5l-.27-1.92-9.48-73.56L453.84,90.6h-6.6L417.12,14.4l-3.24,73.68L413.79,90h-9.23l.2-1.92L415.32,10.2v-.12L404.52,3.6h36.72l21,55.08L475.56,3.6h40.56l-10.8,6.48,9.84,78Z"/><path class="cls-1" d="M581.64,79.2c-5,7.68-13.08,12-24.24,12-16.92,0-30.84-11.76-30.84-30.36,0-17.52,11.76-32,31-32,11.28,0,19.08,6.6,19.08,15.36,0,10-7.68,18.72-22.08,24.12C561.36,75,570,79.44,578,79.44a16.29,16.29,0,0,0,3.48-.36Zm-40.2-39.12c0,10,5.16,20,12.36,27.48,3.36-4.32,4.68-9.12,4.68-15.24,0-10.44-7-19.32-12.12-19.32C543.24,33,541.44,35.64,541.44,40.08Z"/></g></g></svg>