<?xml version="1.0" encoding="UTF-8"?>
<svg width="531px" height="72px" viewBox="0 0 531 72" version="1.1" xmlns="http://www.w3.org/2000/svg" xmlns:xlink="http://www.w3.org/1999/xlink">
    <title>CancerHub</title>
    <g id="New" stroke="none" stroke-width="1" fill="none" fill-rule="evenodd">
        <g id="cancerhub" fill="#FFFFFF" fill-rule="nonzero">
            <path d="M36.223,71.86 C47.476,71.86 57.613,66.094 62.077,58.096 L61.984,58.003 C60.217,58.84 56.962,59.212 54.358,59.212 C34.549,59.212 15.205,39.775 15.205,16.06 C15.205,8.62 18.367,5.458 22.459,5.458 C29.062,5.458 36.502,11.689 50.638,39.31 L50.731,39.31 L58.915,6.853 C52.126,3.319 44.128,1.18 34.549,1.18 C14.182,1.18 0.79,14.293 0.79,34.288 C0.79,56.236 14.833,71.86 36.223,71.86 Z M75.004,70.93 C80.119,70.93 85.048,68.419 89.419,64.699 L89.419,70 L108.019,70 L108.019,68.512 L108.019,42.751 C108.019,29.266 101.788,22.57 90.07,22.57 C80.77,22.57 73.888,26.383 67.564,33.451 L68.029,33.916 C71.191,31.498 74.074,30.382 78.259,30.382 C85.327,30.382 89.419,35.497 89.419,45.727 C73.981,47.401 64.867,53.074 64.867,61.63 C64.867,67.489 68.959,70.93 75.004,70.93 Z M87.28,63.676 C83.56,63.676 81.7,61.351 81.7,56.98 C81.7,52.051 83.839,48.517 89.419,46.936 L89.419,63.397 C88.582,63.583 87.838,63.676 87.28,63.676 Z M139.36,70 L139.36,68.512 L139.36,32.242 C141.22,31.405 143.08,30.847 144.94,30.847 C148.753,30.847 150.52,33.265 150.52,40.519 L150.52,68.512 L150.52,70 L169.12,70 L169.12,68.512 L169.12,36.52 C169.12,27.034 165.028,22.105 157.123,22.105 C150.799,22.105 145.405,25.732 139.36,30.94 L139.36,21.64 L115.459,30.01 L120.76,34.567 L120.76,68.512 L120.76,70 L139.36,70 Z M201.112,70.93 C209.389,70.93 216.178,68.047 220.363,61.723 L220.27,61.63 C219.433,61.909 218.689,62.002 217.48,62.002 C204.367,62.002 189.673,46.192 189.673,31.219 C189.673,27.871 191.068,26.197 193.393,26.197 C198.973,26.197 207.064,35.125 215.713,51.493 L215.806,51.493 L219.433,25.546 C213.388,23.314 208.738,22.57 203.437,22.57 C187.627,22.57 177.862,34.009 177.769,47.68 C177.676,62.002 188.464,70.93 201.112,70.93 Z M248.077,70.93 C256.726,70.93 262.957,67.582 266.863,61.63 L266.77,61.537 C265.933,61.723 265.003,61.816 264.073,61.816 C257.842,61.816 251.146,58.375 245.845,53.167 C257.005,48.982 262.957,42.193 262.957,34.474 C262.957,27.685 256.912,22.57 248.17,22.57 C233.29,22.57 224.176,33.823 224.176,47.401 C224.176,61.816 234.964,70.93 248.077,70.93 Z M245.287,52.609 C239.707,46.843 235.708,39.031 235.708,31.312 C235.708,27.871 237.103,25.825 239.521,25.825 C243.52,25.825 248.914,32.707 248.914,40.798 C248.914,45.541 247.891,49.261 245.287,52.609 Z M292.81,70 L292.81,68.512 L292.81,34.846 C296.065,34.288 300.436,36.706 310.108,47.401 L310.201,47.401 L310.201,22.756 C309.643,22.57 309.085,22.477 308.434,22.477 C304.156,22.477 298.111,26.848 292.81,33.823 L292.81,22.198 L268.909,30.196 L274.21,34.753 L274.21,68.512 L274.21,70 L292.81,70 Z M363.49,70 L363.49,68.512 L363.49,35.311 L385.438,35.311 L385.438,68.512 L385.438,70 L405.898,70 L405.898,68.512 L405.898,68.512 L405.898,7.969 L414.175,3.04 L377.161,3.04 L385.438,7.969 L385.438,33.637 L363.49,33.637 L363.49,7.969 L371.767,3.04 L334.753,3.04 L343.03,7.969 L343.03,68.512 L343.03,70 L363.49,70 Z M431.938,71.023 C437.146,71.023 442.447,67.303 448.585,62.839 L448.585,70 L467.185,70 L467.185,68.512 L467.185,21.733 L443.284,30.103 L448.585,34.66 L448.585,61.351 C447.004,61.909 445.33,62.281 443.842,62.281 C439.267,62.281 438.56304,59.310202 438.541522,51.774305 L438.541,22.198 L414.64,30.568 L419.941,35.125 L419.941,55.12 C419.941,66.187 423.568,71.023 431.938,71.023 Z M501.967,70.93 C520.567,70.93 530.332,61.444 530.332,44.611 C530.332,30.196 523.171,22.57 513.778,22.57 C508.291,22.57 502.525,25.825 497.596,30.847 L497.596,0.25 L473.695,8.62 L478.996,13.177 L478.996,67.396 C485.785,69.535 495.271,70.93 501.967,70.93 Z M502.153,69.07 C500.572,69.07 498.898,68.605 497.596,67.675 L497.596,32.149 C498.898,31.591 500.107,31.219 501.502,31.219 C507.733,31.219 510.43,37.45 510.43,49.912 C510.43,63.304 506.989,69.07 502.153,69.07 Z" id="CancerHub"></path>
        </g>
    </g>
</svg>