<?xml version="1.0" encoding="UTF-8"?>
<svg width="531px" height="72px" viewBox="0 0 531 72" version="1.1" xmlns="http://www.w3.org/2000/svg" xmlns:xlink="http://www.w3.org/1999/xlink">
    <!-- Generator: Sketch 64 (93537) - https://sketch.com -->
    <title>CancerHub</title>
    <desc>Created with Sketch.</desc>
    <g id="Page-1" stroke="none" stroke-width="1" fill="none" fill-rule="evenodd">
        <g id="Desktop-Copy-6" transform="translate(-124.000000, -204.000000)" fill="#BF755D" fill-rule="nonzero">
            <path d="M160.223,275.86 C171.476,275.86 181.613,270.094 186.077,262.096 L185.984,262.003 C184.217,262.84 180.962,263.212 178.358,263.212 C158.549,263.212 139.205,243.775 139.205,220.06 C139.205,212.62 142.367,209.458 146.459,209.458 C153.062,209.458 160.502,215.689 174.638,243.31 L174.731,243.31 L182.915,210.853 C176.126,207.319 168.128,205.18 158.549,205.18 C138.182,205.18 124.79,218.293 124.79,238.288 C124.79,260.236 138.833,275.86 160.223,275.86 Z M199.004,274.93 C204.119,274.93 209.048,272.419 213.419,268.699 L213.419,274 L232.019,274 L232.019,272.512 L232.019,246.751 C232.019,233.266 225.788,226.57 214.07,226.57 C204.77,226.57 197.888,230.383 191.564,237.451 L192.029,237.916 C195.191,235.498 198.074,234.382 202.259,234.382 C209.327,234.382 213.419,239.497 213.419,249.727 C197.981,251.401 188.867,257.074 188.867,265.63 C188.867,271.489 192.959,274.93 199.004,274.93 Z M211.28,267.676 C207.56,267.676 205.7,265.351 205.7,260.98 C205.7,256.051 207.839,252.517 213.419,250.936 L213.419,267.397 C212.582,267.583 211.838,267.676 211.28,267.676 Z M263.36,274 L263.36,272.512 L263.36,236.242 C265.22,235.405 267.08,234.847 268.94,234.847 C272.753,234.847 274.52,237.265 274.52,244.519 L274.52,272.512 L274.52,274 L293.12,274 L293.12,272.512 L293.12,240.52 C293.12,231.034 289.028,226.105 281.123,226.105 C274.799,226.105 269.405,229.732 263.36,234.94 L263.36,225.64 L239.459,234.01 L244.76,238.567 L244.76,272.512 L244.76,274 L263.36,274 Z M325.112,274.93 C333.389,274.93 340.178,272.047 344.363,265.723 L344.27,265.63 C343.433,265.909 342.689,266.002 341.48,266.002 C328.367,266.002 313.673,250.192 313.673,235.219 C313.673,231.871 315.068,230.197 317.393,230.197 C322.973,230.197 331.064,239.125 339.713,255.493 L339.806,255.493 L343.433,229.546 C337.388,227.314 332.738,226.57 327.437,226.57 C311.627,226.57 301.862,238.009 301.769,251.68 C301.676,266.002 312.464,274.93 325.112,274.93 Z M372.077,274.93 C380.726,274.93 386.957,271.582 390.863,265.63 L390.77,265.537 C389.933,265.723 389.003,265.816 388.073,265.816 C381.842,265.816 375.146,262.375 369.845,257.167 C381.005,252.982 386.957,246.193 386.957,238.474 C386.957,231.685 380.912,226.57 372.17,226.57 C357.29,226.57 348.176,237.823 348.176,251.401 C348.176,265.816 358.964,274.93 372.077,274.93 Z M369.287,256.609 C363.707,250.843 359.708,243.031 359.708,235.312 C359.708,231.871 361.103,229.825 363.521,229.825 C367.52,229.825 372.914,236.707 372.914,244.798 C372.914,249.541 371.891,253.261 369.287,256.609 Z M416.81,274 L416.81,272.512 L416.81,238.846 C420.065,238.288 424.436,240.706 434.108,251.401 L434.201,251.401 L434.201,226.756 C433.643,226.57 433.085,226.477 432.434,226.477 C428.156,226.477 422.111,230.848 416.81,237.823 L416.81,226.198 L392.909,234.196 L398.21,238.753 L398.21,272.512 L398.21,274 L416.81,274 Z M487.49,274 L487.49,272.512 L487.49,239.311 L509.438,239.311 L509.438,272.512 L509.438,274 L529.898,274 L529.898,272.512 L529.898,272.512 L529.898,211.969 L538.175,207.04 L501.161,207.04 L509.438,211.969 L509.438,237.637 L487.49,237.637 L487.49,211.969 L495.767,207.04 L458.753,207.04 L467.03,211.969 L467.03,272.512 L467.03,274 L487.49,274 Z M555.938,275.023 C561.146,275.023 566.447,271.303 572.585,266.839 L572.585,274 L591.185,274 L591.185,272.512 L591.185,225.733 L567.284,234.103 L572.585,238.66 L572.585,265.351 C571.004,265.909 569.33,266.281 567.842,266.281 C563.267,266.281 562.56304,263.310202 562.541522,255.774305 L562.541,226.198 L538.64,234.568 L543.941,239.125 L543.941,259.12 C543.941,270.187 547.568,275.023 555.938,275.023 Z M625.967,274.93 C644.567,274.93 654.332,265.444 654.332,248.611 C654.332,234.196 647.171,226.57 637.778,226.57 C632.291,226.57 626.525,229.825 621.596,234.847 L621.596,204.25 L597.695,212.62 L602.996,217.177 L602.996,271.396 C609.785,273.535 619.271,274.93 625.967,274.93 Z M626.153,273.07 C624.572,273.07 622.898,272.605 621.596,271.675 L621.596,236.149 C622.898,235.591 624.107,235.219 625.502,235.219 C631.733,235.219 634.43,241.45 634.43,253.912 C634.43,267.304 630.989,273.07 626.153,273.07 Z" id="CancerHub"></path>
        </g>
    </g>
</svg>