<svg xmlns="http://www.w3.org/2000/svg" viewBox="0 0 634.17 121.31"><defs><style>.cls-1{fill:#fff;}</style></defs><g id="Layer_2" data-name="Layer 2"><g id="Layer_1-2" data-name="Layer 1"><path class="cls-1" d="M37.08,5.52v38.4c7.56-.36,16-6.72,20.4-15.84h.12V61.56h-.12c-4.56-9.36-12.6-15.6-20.4-16V88.08c14.16-.24,26.28-7.2,37.56-28.08h.12V90H1.08V88.08h9.6v-78L0,3.6H74.76v30h-.12C63.36,13,51.24,5.64,37.08,5.52Z"/><path class="cls-1" d="M85.78,88.08,89.5,68.52h.12L104.5,88.44a12.23,12.23,0,0,0,4,.6c5.28,0,8.88-2.76,8.88-7.68,0-3.6-2.16-5.64-7.2-8.28l-7.92-4.2c-10-5.28-14.76-10.92-14.76-20,0-12.12,9.84-20,25.8-20a55.74,55.74,0,0,1,19.92,3.48l-4.68,19h-.12l-13.92-19.8a6.1,6.1,0,0,0-2-.36c-5.28,0-7.92,3-7.92,6.36,0,4.2,1.92,7.2,9,10.92l9,4.8C130.78,57.6,135.1,63.6,135.1,71c0,12.48-12.6,20.16-27.36,20.16A77.4,77.4,0,0,1,85.78,88.08Z"/><path class="cls-1" d="M190.06,79C185.62,86,177.7,91.2,166.66,91.2c-14.28,0-19.92-8.4-19.92-24V33.12H137.5V33L170.74,6.84V31.2h16.92v1.92H170.74v28c0,13.92,3.24,19.08,12.12,19.08a17.69,17.69,0,0,0,7.08-1.32Z"/><path class="cls-1" d="M257.25,88.08V90h-24V80.76c-7.92,5.76-14.76,10.56-21.48,10.56-10.8,0-15.48-6.24-15.48-20.52V45l-6.84-5.88,30.84-10.8V66c0,10.08.84,14,6.84,14a19.08,19.08,0,0,0,6.12-1.2V44.4l-6.84-5.88,30.83-10.8V88.08Z"/><path class="cls-1" d="M322.89,88.08V90h-24V83.16c-5.64,4.8-12,8-18.6,8-7.79,0-13.07-4.44-13.07-12,0-11,11.76-18.36,31.67-20.52,0-13.2-5.28-19.8-14.4-19.8a19.86,19.86,0,0,0-13.19,4.56l-.6-.6c8.15-9.12,17-14,29-14,15.12,0,23.16,8.64,23.16,26V88.08Zm-24-6.6V60.24c-7.2,2-10,6.6-10,13,0,5.64,2.4,8.64,7.2,8.64A13.38,13.38,0,0,0,298.89,81.48Z"/><path class="cls-1" d="M385.77,29v31.8h-.12c-12.48-13.8-18.12-16.92-22.32-16.2V88.08h0V90h-24V88.08h0V44.52l-6.83-5.88,30.83-10.32v15c6.84-9,14.64-14.64,20.16-14.64A7,7,0,0,1,385.77,29Z"/><path class="cls-1" d="M461.61,31.2l-8,5.88L427.53,90l-14.28,31.31-22.79-16,34.91-16L397.05,37.08,388.9,31.2H431l-8,5.88,13.32,31.56,11.28-31.56-9.24-5.88Z"/><path class="cls-1" d="M453.21,80.16c0-7.2,4.56-11.64,11.52-11.64S476.25,73,476.25,80.16,471.69,91.8,464.73,91.8,453.21,87.36,453.21,80.16Z"/><path class="cls-1" d="M536.13,3.6,532.89,27h-.12l-9.72-14.16c-3.48-5.16-7.32-11.28-8.88-10.68s-1.92,4.56-1.92,12.24V31.2h15.48v1.92H512.25v55h0V90h-24V88.08h0v-55h-7.2V31.2h7.32C489.69,9,501.93,0,518.37,0A46.94,46.94,0,0,1,536.13,3.6Z"/><path class="cls-1" d="M634.17,88.08V90h-24V88.08h0V52c0-9.36-1.44-12.48-6.6-12.48a16.57,16.57,0,0,0-7.44,1.8,38.76,38.76,0,0,1,.36,5.52V88.08h0V90h-24V88.08h0V52c0-9.36-1.44-12.48-6.6-12.48A16.41,16.41,0,0,0,558.81,41v47h0V90h-24V88.08h0V44.28L528,38.4l30.84-10.8v12c9.72-7.8,16.08-11.4,22.8-11.4,8.16,0,12.72,4.08,14.28,11.88C606,31.92,612.45,28.2,619.29,28.2c10.2,0,14.88,6.36,14.88,18.6V88.08Z"/></g></g></svg>