<?xml version="1.0" encoding="UTF-8"?>
<svg width="635px" height="122px" viewBox="0 0 635 122" version="1.1" xmlns="http://www.w3.org/2000/svg" xmlns:xlink="http://www.w3.org/1999/xlink">
    <title>estuary_plain</title>
    <g id="New" stroke="none" stroke-width="1" fill="none" fill-rule="evenodd">
        <g id="estuary_plain" fill="#C999BB" fill-rule="nonzero">
            <path d="M431,31.2 L423,37.08 L436.32,68.64 L447.6,37.08 L438.36,31.2 L461.61,31.2 L453.61,37.08 L427.53,90 L413.25,121.31 L390.46,105.31 L425.37,89.31 L397.05,37.08 L388.9,31.2 L431,31.2 Z M464.73,68.52 C471.69,68.52 476.25,73 476.25,80.16 C476.25,87.32 471.69,91.8 464.73,91.8 C457.77,91.8 453.21,87.36 453.21,80.16 C453.21,72.96 457.77,68.52 464.73,68.52 Z M257.24,27.72 L257.24,88.08 L257.25,88.08 L257.25,90 L233.25,90 L233.25,80.76 C225.33,86.52 218.49,91.32 211.77,91.32 C200.97,91.32 196.29,85.08 196.29,70.8 L196.29,45 L189.45,39.12 L220.29,28.32 L220.29,66 C220.29,76.08 221.13,80 227.13,80 C229.222008,79.9383636 231.289622,79.532949 233.25,78.8 L233.25,44.4 L226.41,38.52 L257.24,27.72 Z M170.74,6.84 L170.74,31.2 L187.66,31.2 L187.66,33.12 L170.74,33.12 L170.74,61.12 C170.74,75.04 173.98,80.2 182.86,80.2 C185.285547,80.2501423 187.695483,79.8008322 189.94,78.88 L190.06,79 C185.62,86 177.7,91.2 166.66,91.2 C152.38,91.2 146.74,82.8 146.74,67.2 L146.74,33.12 L137.5,33.12 L137.5,33 L170.74,6.84 Z M133.22,32.36 L128.54,51.36 L128.42,51.36 L114.5,31.56 C113.858152,31.329017 113.182106,31.2073288 112.5,31.2 C107.22,31.2 104.58,34.2 104.58,37.56 C104.58,41.76 106.5,44.76 113.58,48.48 L122.58,53.28 C130.78,57.6 135.1,63.6 135.1,71 C135.1,83.48 122.5,91.16 107.74,91.16 C100.310111,91.1926726 92.9142263,90.1553627 85.78,88.08 L89.5,68.52 L89.62,68.52 L104.5,88.44 C105.79079,88.8606244 107.142607,89.0633969 108.5,89.04 C113.78,89.04 117.38,86.28 117.38,81.36 C117.38,77.76 115.22,75.72 110.18,73.08 L102.26,68.88 C92.26,63.6 87.5,57.96 87.5,48.88 C87.5,36.76 97.34,28.88 113.3,28.88 C120.096639,28.8157742 126.847713,29.9951787 133.22,32.36 Z M299.7,28.8 C314.82,28.8 322.86,37.44 322.86,54.8 L322.86,88.08 L322.89,88.08 L322.89,90 L298.89,90 L298.89,83.16 C293.25,87.96 286.89,91.16 280.29,91.16 C272.5,91.16 267.22,86.72 267.22,79.16 C267.22,68.16 278.98,60.8 298.89,58.64 C298.89,45.44 293.61,38.84 284.49,38.84 C279.68646,38.7142678 275.000234,40.3343733 271.3,43.4 L270.7,42.8 C278.85,33.68 287.7,28.8 299.7,28.8 Z M74.76,3.6 L74.76,33.6 L74.64,33.6 C63.36,13 51.24,5.64 37.08,5.52 L37.08,43.92 C44.64,43.56 53.08,37.2 57.48,28.08 L57.6,28.08 L57.6,61.56 L57.48,61.56 C52.92,52.2 44.88,45.96 37.08,45.56 L37.08,88.08 C51.24,87.84 63.36,80.88 74.64,60 L74.76,60 L74.76,90 L1.08,90 L1.08,88.08 L10.68,88.08 L10.68,10.08 L-1.59872116e-12,3.6 L74.76,3.6 Z M518.37,0 C524.467634,0.0350538926 530.500023,1.25783552 536.13,3.6 L532.89,27 L532.77,27 L523.05,12.84 C522.683684,12.2968421 522.31338,11.7430471 521.942165,11.1875725 L521.570761,10.6318699 C518.537018,6.0944783 515.511053,1.64421053 514.17,2.16 C512.639434,2.74867925 512.264012,6.57176219 512.25039,13.9692535 L512.25,31.2 L527.73,31.2 L527.73,33.12 L512.25,33.12 L512.25,90 L488.25,90 L488.25,33.08 L481.05,33.08 L481.05,31.2 L488.37,31.2 C489.69,9 501.93,0 518.37,0 Z M558.84,27.6 L558.84,39.6 C568.56,31.8 574.92,28.2 581.64,28.2 C589.8,28.2 594.36,32.28 595.92,40.08 C606,31.92 612.45,28.2 619.29,28.2 C629.49,28.2 634.17,34.56 634.17,46.8 L634.17,90 L610.17,90 L610.17,52 C610.17,42.64 608.73,39.52 603.57,39.52 C600.983504,39.5310972 598.435522,40.1475444 596.13,41.32 C596.381314,43.1490777 596.501621,44.9937744 596.49,46.84 L596.49,90 L572.49,90 L572.49,52 C572.49,42.64 571.05,39.52 565.89,39.52 C563.449297,39.4806109 561.03055,39.9862248 558.81,41 L558.81,90 L534.81,90 L534.81,44.28 L528,38.4 L558.84,27.6 Z M363.33,28.32 L363.33,43.32 C370.17,34.32 377.97,28.68 383.49,28.68 C384.262453,28.6600943 385.032871,28.7682232 385.77,29 L385.77,60.8 L385.65,60.8 C373.17,47 367.53,43.88 363.33,44.6 L363.33,90 L339.33,90 L339.33,44.52 L332.5,38.64 L363.33,28.32 Z M298.89,60.24 C291.69,62.24 288.89,66.84 288.89,73.24 C288.89,78.88 291.29,81.88 296.09,81.88 C297.034844,81.8459679 297.97342,81.7118856 298.89,81.48 L298.89,60.24 Z" id="Combined-Shape"></path>
        </g>
    </g>
</svg>