<?xml version="1.0" encoding="UTF-8"?>
<svg width="388px" height="87px" viewBox="0 0 388 87" version="1.1" xmlns="http://www.w3.org/2000/svg" xmlns:xlink="http://www.w3.org/1999/xlink">
    <!-- Generator: Sketch 63.1 (92452) - https://sketch.com -->
    <title>Keytruda</title>
    <desc>Created with Sketch.</desc>
    <g id="Page-1" stroke="none" stroke-width="1" fill="none" fill-rule="evenodd">
        <g id="Artboard" transform="translate(-80.000000, -394.000000)" fill="#48A548">
            <path d="M215.797679,416.233624 L210.066602,420.425488 L219.558421,442.916894 L227.598319,420.425488 L221.012123,416.233624 L237.603209,416.233624 L231.872132,420.425488 L213.316053,458.138009 L203.138358,480.460174 L186.889319,469.085312 L211.776839,457.71045 L191.594254,420.425488 L185.779446,416.233624 L215.797679,416.233624 Z M365.011638,413.75467 L365.011638,458.1389 L347.909262,458.1389 L347.909262,451.554485 C342.263696,455.657274 337.389519,459.077749 332.600854,459.077749 C324.903003,459.077749 321.568039,454.631131 321.568039,444.455217 L321.568039,426.068381 L316.695643,421.878299 L338.672197,414.180448 L338.672197,441.034742 C338.672197,448.219522 339.27078,451.041414 343.546374,451.041414 C344.916346,451.041414 346.45556,450.697585 347.909262,450.184513 L347.909262,425.640822 L343.035085,421.450739 L365.011638,413.75467 Z M450.864499,414.523921 C461.640778,414.523921 467.371856,420.680776 467.371856,433.081781 L467.371856,458.138544 L450.265916,458.138544 L450.265916,453.264366 C446.246858,456.684842 441.712947,458.993663 437.011575,458.993663 C431.451521,458.993663 427.688998,455.829723 427.688998,450.442474 C427.688998,442.5736 436.069162,437.357375 450.265916,435.818161 C450.265916,426.411854 446.503393,421.706919 440.00449,421.706919 C436.156456,421.706919 433.505587,422.733061 430.596402,424.95637 L430.168842,424.528811 C435.98365,418.029908 442.31153,414.523921 450.864499,414.523921 Z M171.159586,414.52303 C179.195921,414.52303 184.754194,419.227965 184.754194,425.470332 C184.754194,432.567819 179.281433,438.810186 169.018226,442.658221 C173.894185,447.448668 180.052822,450.612607 185.782118,450.612607 C186.635455,450.612607 187.492355,450.527095 188.260181,450.357853 L188.347474,450.441584 C184.754194,455.916125 179.026679,458.992772 171.072293,458.992772 C159.013336,458.992772 149.093957,450.612607 149.093957,437.358266 C149.093957,424.871749 157.474122,414.52303 171.159586,414.52303 Z M261.711681,398.872039 L261.711681,416.234515 L273.77242,416.234515 L273.77242,417.602705 L261.711681,417.602705 L261.711681,437.528755 C261.711681,447.448133 264.022284,451.125144 270.351944,451.125144 C272.233206,451.125144 273.685126,450.868608 275.397145,450.184513 L275.480876,450.270025 C272.318718,455.317008 266.674933,458.992237 258.80784,458.992237 C248.630145,458.992237 244.611086,453.006406 244.611086,441.889861 L244.611086,417.602705 L238.02489,417.602705 L238.02489,417.517193 L261.711681,398.872039 Z M420.595431,394 L420.595431,458.139256 L403.491273,458.139256 L403.491273,451.382036 C398.957362,456.001459 393.655625,458.992594 388.610424,458.992594 C379.888212,458.992594 373.389309,451.895107 373.389309,438.724496 C373.389309,424.529524 381.512938,414.522852 393.228066,414.522852 C397.760195,414.522852 400.840405,415.892823 403.491273,417.688573 L403.491273,405.886152 L398.617096,401.696069 L420.595431,394 Z M148.756898,396.564644 L120.106854,415.036992 L147.390489,456.770354 L148.286583,458.140325 L125.750639,458.140325 L107.280072,428.635163 L129.598673,401.096774 L121.989897,396.564644 L148.756898,396.564644 Z M114.035511,396.564644 L106.426735,401.184067 L106.426735,458.140325 L87.6105575,458.140325 L87.6105575,401.184067 L80,396.564644 L114.035511,396.564644 Z M298.055122,414.180982 L298.055122,424.871749 C302.931081,418.456577 308.487572,414.437518 312.4229,414.437518 C313.021483,414.437518 313.534554,414.52303 314.047625,414.694054 L314.047625,437.358266 L313.960332,437.358266 C305.067096,427.522618 301.048038,425.299309 298.055122,425.81238 L298.055122,458.139434 L280.950964,458.139434 L280.950964,425.726868 L276.076787,421.536786 L298.055122,414.180982 Z M450.265916,436.929815 C445.133422,438.383517 443.16843,441.63475 443.16843,446.165099 C443.16843,450.184157 444.880449,452.323736 448.299143,452.323736 C448.812214,452.323736 449.496309,452.238224 450.265916,452.0672 L450.265916,436.929815 Z M399.301191,417.857815 C394.852791,417.857815 391.688852,423.246845 391.688852,433.850319 C391.688852,445.310692 394.170478,451.039989 399.899774,451.039989 C401.180671,451.039989 402.294107,450.697941 403.491273,450.18487 L403.491273,419.142275 C402.294107,418.287156 400.754893,417.857815 399.301191,417.857815 Z M163.205199,417.517727 C160.98189,417.517727 159.697431,419.398989 159.697431,422.562928 C159.697431,429.660415 163.374442,436.845194 168.506936,442.146931 C170.901269,439.068503 171.840118,435.648028 171.840118,431.28514 C171.840118,423.845607 166.88221,417.517727 163.205199,417.517727 Z" id="Keytruda"></path>
        </g>
    </g>
</svg>