<?xml version="1.0" encoding="UTF-8"?>
<svg width="185px" height="41px" viewBox="0 0 185 41" version="1.1" xmlns="http://www.w3.org/2000/svg" xmlns:xlink="http://www.w3.org/1999/xlink">
    <!-- Generator: Sketch 63.1 (92452) - https://sketch.com -->
    <title>Keytruda</title>
    <desc>Created with Sketch.</desc>
    <g id="Page-1" stroke="none" stroke-width="1" fill="none" fill-rule="evenodd">
        <g id="Desktop-Copy" transform="translate(-127.000000, -475.000000)" fill="#FFFFFF">
            <g id="Group-2-Copy" transform="translate(100.000000, 449.000000)">
                <path d="M92.2600849,36.6956522 L89.5001973,38.6735211 L94.0711271,49.2857587 L97.9428625,38.6735211 L94.7711794,36.6956522 L102.76087,36.6956522 L100.000982,38.6735211 L91.0650201,56.4676168 L86.163796,67 L78.338824,61.6329396 L90.3237882,56.2658792 L80.6045571,38.6735211 L77.8043478,36.6956522 L92.2600849,36.6956522 Z M70.4998915,35.8043478 C74.3318853,35.8043478 76.9822557,38.0675653 76.9822557,41.0703347 C76.9822557,44.4844424 74.3726602,47.4872119 69.4788193,49.3382341 C71.8038397,51.6425854 74.7404841,53.1645371 77.4724043,53.1645371 C77.8793041,53.1645371 78.2879029,53.1234032 78.6540278,53.0419925 L78.6956522,53.0822694 C76.9822557,55.7156913 74.2511849,57.1956522 70.4582671,57.1956522 C64.7081526,57.1956522 59.9782609,53.1645371 59.9782609,46.7887937 C59.9782609,40.7823979 63.9742039,35.8043478 70.4998915,35.8043478 Z M114.033909,28.673913 L114.033909,36.9108784 L119.773867,36.9108784 L119.773867,37.5599641 L114.033909,37.5599641 L114.033909,47.01312 C114.033909,51.7189914 115.133573,53.4634093 118.145991,53.4634093 C119.041322,53.4634093 119.732322,53.3417057 120.547107,53.0171629 L120.586957,53.0577307 C119.082019,55.4520795 116.396024,57.1956522 112.65191,57.1956522 C107.808132,57.1956522 105.895378,54.3559022 105.895378,49.0820807 L105.895378,37.5599641 L102.76087,37.5599641 L102.76087,37.5193962 L114.033909,28.673913 Z M162.478261,35.8043478 L162.478261,56.75254 L154.275408,56.75254 L154.275408,53.6448689 C151.567612,55.5812776 149.229799,57.1956522 146.933001,57.1956522 C143.240863,57.1956522 141.641306,55.0969652 141.641306,50.2942007 L141.641306,41.6160964 L139.304348,39.6384875 L149.845013,36.0053038 L149.845013,48.6798261 C149.845013,52.0708536 150.132113,53.4027127 152.182826,53.4027127 C152.839909,53.4027127 153.578166,53.2404344 154.275408,52.9982782 L154.275408,41.4142996 L151.937595,39.4366907 L162.478261,35.8043478 Z M189.217391,26 L189.217391,56.7860607 L181.143751,56.7860607 L181.143751,53.5426774 C179.003618,55.7599442 176.50105,57.1956522 174.119574,57.1956522 C170.002446,57.1956522 166.934783,53.7889454 166.934783,47.4672125 C166.934783,40.6537989 170.769362,35.8507185 176.29923,35.8507185 C178.438522,35.8507185 179.892467,36.5082882 181.143751,37.3702261 L181.143751,31.7052078 L178.843003,29.6940194 L189.217391,26 Z M203.713901,35.8043478 C208.796797,35.8043478 211.5,38.7659834 211.5,44.7312454 L211.5,56.7843139 L203.431565,56.7843139 L203.431565,54.4396857 C201.535878,56.0850388 199.397347,57.1956522 197.17983,57.1956522 C194.557295,57.1956522 192.782609,55.6737005 192.782609,53.0822694 C192.782609,49.2971003 196.735318,46.7879368 203.431565,46.0475279 C203.431565,41.5228068 201.656879,39.2595894 198.591512,39.2595894 C196.776492,39.2595894 195.526146,39.7531953 194.153957,40.8226748 L193.952288,40.6170057 C196.694985,37.4908348 199.679684,35.8043478 203.713901,35.8043478 Z M59.9782609,26.8913043 L46.236678,35.7150472 L59.3228826,55.6499493 L59.7526808,56.3043478 L48.9436382,56.3043478 L40.0844956,42.2105269 L50.7892929,29.0561806 L47.1398525,26.8913043 L59.9782609,26.8913043 Z M43.324645,26.8913043 L39.6752046,29.0978783 L39.6752046,56.3043478 L30.6502949,56.3043478 L30.6502949,29.0978783 L27,26.8913043 L43.324645,26.8913043 Z M130.905078,35.8043478 L130.905078,40.7899811 C133.194183,37.7982688 135.802777,35.9239831 137.650287,35.9239831 C137.931303,35.9239831 138.172173,35.9638615 138.413043,36.0436183 L138.413043,46.6130611 L138.372062,46.6130611 C134.196974,42.0262121 132.310155,40.9893732 130.905078,41.2286437 L130.905078,56.3043478 L122.875226,56.3043478 L122.875226,41.1887653 L120.586957,39.2347227 L130.905078,35.8043478 Z M203.431565,46.5822677 C201.010698,47.2815427 200.083862,48.8454851 200.083862,51.0247211 C200.083862,52.958011 200.891378,53.9872136 202.503888,53.9872136 C202.745891,53.9872136 203.068561,53.9460798 203.431565,53.8638121 L203.431565,46.5822677 Z M179.165915,37.4514603 C177.066146,37.4514603 175.572678,40.038129 175.572678,45.1276669 C175.572678,50.6285065 176.744075,53.3784987 179.448463,53.3784987 C180.053082,53.3784987 180.578655,53.2143201 181.143751,52.9680521 L181.143751,38.0679853 C180.578655,37.6575387 179.852103,37.4514603 179.165915,37.4514603 Z M66.7069736,37.2448888 C65.6468255,37.2448888 65.034352,38.149833 65.034352,39.6717846 C65.034352,43.0858923 66.787674,46.5419908 69.2350192,49.0922881 C70.3767172,47.6114703 70.8243919,45.9661172 70.8243919,43.867435 C70.8243919,40.288792 68.4602956,37.2448888 66.7069736,37.2448888 Z" id="Keytruda"></path>
            </g>
        </g>
    </g>
</svg>