<?xml version="1.0" encoding="UTF-8"?>
<svg width="305px" height="93px" viewBox="0 0 305 93" version="1.1" xmlns="http://www.w3.org/2000/svg" xmlns:xlink="http://www.w3.org/1999/xlink">
    <title>misc_plain</title>
    <g id="New" stroke="none" stroke-width="1" fill="none" fill-rule="evenodd">
        <g id="misc_plain" fill="#203B4D" fill-rule="nonzero">
            <polygon id="Path" points="110.87 91.2 84.44 91.2 84.12 89.28 74.64 15.72 49.32 91.8 42.72 91.8 12.6 15.6 9.36 89.28 9.36 91.2 0 91.2 0.24 89.28 10.8 11.4 10.8 11.28 0 4.8 36.72 4.8 57.72 59.88 71 4.8 111.6 4.8 100.8 11.28 110.64 89.28"></polygon>
            <path d="M129.72,89.28 L129.72,45.48 L122.88,39.6 L153.72,28.8 L153.72,91.2 L129.72,91.2 L129.72,89.28 Z M128.4,13.28 C128.4,5.4 133.2,0 141.72,0 C150.24,0 155,5.4 155,13.32 C155,21.24 150.2,26.76 141.68,26.76 C133.16,26.76 128.4,21.36 128.4,13.32 L128.4,13.28 Z" id="Shape"></path>
            <path d="M164.88,89.28 L168.6,69.72 L168.72,69.72 L183.6,89.64 C184.89079,90.0606244 186.242607,90.2633969 187.6,90.24 C192.88,90.24 196.48,87.48 196.48,82.56 C196.48,78.96 194.32,76.92 189.28,74.28 L181.36,70.08 C171.36,64.8 166.6,59.16 166.6,50.08 C166.6,37.96 176.44,30.08 192.4,30.08 C199.196639,30.0157742 205.947713,31.1951787 212.32,33.56 L207.64,52.56 L207.52,52.56 L193.6,32.76 C192.958152,32.529017 192.282106,32.4073288 191.6,32.4 C186.32,32.4 183.68,35.4 183.68,38.76 C183.68,42.96 185.6,45.96 192.68,49.68 L201.68,54.48 C209.96,58.92 214.28,64.92 214.28,72.36 C214.28,84.84 201.68,92.52 186.92,92.52 C179.455535,92.5084215 172.031998,91.4171211 164.88,89.28 L164.88,89.28 Z" id="Path"></path>
            <path d="M220.2,62.4 C220.32,44.76 232.92,30 253.32,30 C260.394713,29.9543053 267.413296,31.2575624 274,33.84 L269.32,67.32 L269.2,67.32 C258,46.2 247.56,34.68 240.36,34.68 C237.36,34.68 235.56,36.84 235.56,41.16 C235.56,60.48 254.56,80.88 271.44,80.88 C272.658809,80.9311464 273.87717,80.7686982 275.04,80.4 L275.16,80.52 C269.76,88.68 261,92.4 250.32,92.4 C234,92.4 220.08,80.88 220.2,62.4 Z" id="Path"></path>
            <path d="M281.88,81.36 C281.88,74.16 286.44,69.72 293.4,69.72 C300.36,69.72 304.92,74.16 304.92,81.36 C304.92,88.56 300.36,93 293.4,93 C286.44,93 281.88,88.56 281.88,81.36 Z" id="Path"></path>
        </g>
    </g>
</svg>