<svg xmlns="http://www.w3.org/2000/svg" viewBox="0 0 304.92 93"><defs><style>.cls-1{fill:#fff;}</style></defs><g id="Layer_2" data-name="Layer 2"><g id="Layer_1-2" data-name="Layer 1"><path class="cls-1" d="M110.87,91.2H84.44l-.32-1.92L74.64,15.72,49.32,91.8h-6.6L12.6,15.6,9.36,89.28l0,1.92H0l.24-1.92L10.8,11.4v-.12L0,4.8H36.72l21,55.08L71,4.8H111.6l-10.8,6.48,9.84,78Z"/><path class="cls-1" d="M129.72,89.28V45.48l-6.84-5.88,30.84-10.8V91.2h-24Zm-1.32-76C128.4,5.4,133.2,0,141.72,0S155,5.4,155,13.32s-4.8,13.44-13.32,13.44S128.4,21.36,128.4,13.32Z"/><path class="cls-1" d="M164.88,89.28l3.72-19.56h.12L183.6,89.64a12.23,12.23,0,0,0,4,.6c5.28,0,8.88-2.76,8.88-7.68,0-3.6-2.16-5.64-7.2-8.28l-7.92-4.2c-10-5.28-14.76-10.92-14.76-20,0-12.12,9.84-20,25.8-20a55.74,55.74,0,0,1,19.92,3.48l-4.68,19h-.12l-13.92-19.8a6.1,6.1,0,0,0-2-.36c-5.28,0-7.92,3-7.92,6.36,0,4.2,1.92,7.2,9,10.92l9,4.8c8.28,4.44,12.6,10.44,12.6,17.88,0,12.48-12.6,20.16-27.36,20.16A77.4,77.4,0,0,1,164.88,89.28Z"/><path class="cls-1" d="M220.2,62.4c.12-17.64,12.72-32.4,33.12-32.4A55.67,55.67,0,0,1,274,33.84l-4.68,33.48h-.12C258,46.2,247.56,34.68,240.36,34.68c-3,0-4.8,2.16-4.8,6.48,0,19.32,19,39.72,35.88,39.72a10.46,10.46,0,0,0,3.6-.48l.12.12C269.76,88.68,261,92.4,250.32,92.4,234,92.4,220.08,80.88,220.2,62.4Z"/><path class="cls-1" d="M281.88,81.36c0-7.2,4.56-11.64,11.52-11.64s11.52,4.44,11.52,11.64S300.36,93,293.4,93,281.88,88.56,281.88,81.36Z"/></g></g></svg>