<?xml version="1.0" encoding="UTF-8"?>
<svg width="405px" height="67px" viewBox="0 0 405 67" version="1.1" xmlns="http://www.w3.org/2000/svg" xmlns:xlink="http://www.w3.org/1999/xlink">
    <!-- Generator: Sketch 63.1 (92452) - https://sketch.com -->
    <title>Nodehost</title>
    <desc>Created with Sketch.</desc>
    <g id="Page-1" stroke="none" stroke-width="1" fill="none" fill-rule="evenodd">
        <g id="Artboard" transform="translate(-80.000000, -277.000000)" fill="#0E1267">
            <path d="M429.147964,298.541684 C434.754716,298.541684 439.238681,299.486526 443.463955,301.034421 L440.100981,314.605789 L440.014751,314.605789 L430.012061,300.433158 C429.579114,300.259579 428.975504,300.173684 428.544353,300.173684 C424.750229,300.173684 422.853167,302.321053 422.853167,304.726105 C422.853167,307.734211 424.232849,309.881579 429.320424,312.544316 L435.787681,315.980105 C441.739353,319.16 444.843636,323.452947 444.843636,328.780211 C444.843636,337.713263 435.787681,343.210526 425.18138,343.210526 C421.126769,343.210526 415.435583,342.782842 409.401273,340.977263 L412.074406,326.976421 L412.15884,326.976421 L422.853167,341.236737 C424.060388,341.578526 424.663999,341.666211 425.69876,341.666211 C429.494681,341.666211 432.081583,339.688842 432.081583,336.167158 C432.081583,333.590316 430.527645,332.130105 426.905981,330.240421 L421.214796,327.232316 C414.057698,323.452947 410.608495,319.415895 410.608495,312.887895 C410.608495,304.210737 417.677565,298.541684 429.147964,298.541684 Z M171.06077,298.542042 C185.288735,298.542042 195.551912,307.133305 195.551912,320.618779 C195.551912,333.1612 187.532513,343.210884 171.147,343.210884 C158.728071,343.210884 147.345699,334.447832 147.345699,320.618779 C147.345699,308.335832 157.005265,298.542042 171.06077,298.542042 Z M279.453428,298.541326 C287.559057,298.541326 293.164012,303.267326 293.164012,309.537642 C293.164012,316.666905 287.645287,322.937221 277.297676,326.802484 C282.214588,331.614379 288.421358,334.792484 294.20057,334.792484 C295.062871,334.792484 295.925172,334.706589 296.701242,334.536589 L296.785676,334.620695 C293.164012,340.119747 287.386596,343.210168 279.367198,343.210168 C267.206959,343.210168 257.204269,334.792484 257.204269,321.4788 C257.204269,308.936379 265.656614,298.541326 279.453428,298.541326 Z M380.169453,298.542042 C394.397418,298.542042 404.660595,307.133305 404.660595,320.618779 C404.660595,333.1612 396.641196,343.210884 380.255683,343.210884 C367.836754,343.210884 356.454382,334.447832 356.454382,320.618779 C356.454382,308.335832 366.113949,298.542042 380.169453,298.542042 Z M470.451996,282.820263 L470.451996,300.260474 L482.610439,300.260474 L482.610439,301.634789 L470.451996,301.634789 L470.451996,321.650053 C470.451996,331.613842 472.780209,335.307316 479.161235,335.307316 C481.060094,335.307316 482.526005,335.049632 484.248811,334.362474 L484.336837,334.448368 C481.146324,339.517947 475.453342,343.209632 467.520173,343.209632 C457.256996,343.209632 453.204182,337.197 453.204182,326.030684 L453.204182,301.634789 L446.566262,301.634789 L446.566262,301.548895 L470.451996,282.820263 Z M249.189003,277.926411 L249.189003,342.352832 L231.941188,342.352832 L231.941188,335.565358 C227.369197,340.205463 222.022932,343.209989 216.935357,343.209989 C208.139888,343.209989 201.586401,336.080726 201.586401,322.851147 C201.586401,308.592621 209.778259,298.541147 221.591781,298.541147 C226.161976,298.541147 229.268056,299.917253 231.941188,301.721042 L231.941188,289.865779 L227.026073,285.656937 L249.189003,277.926411 Z M320.843871,277.926053 L320.843871,306.273105 C326.448827,301.461211 331.451968,298.111316 337.315614,298.111316 C344.645172,298.111316 348.439296,302.665526 348.439296,311.428579 L348.439296,342.352474 L331.191481,342.352474 L331.191481,315.120263 C331.191481,308.420474 329.55311,306.187211 326.017676,306.187211 C324.294871,306.187211 322.568473,306.702579 320.843871,307.475632 L320.843871,342.352474 L303.596057,342.352474 L303.596057,289.865421 L298.680942,285.656579 L320.843871,277.926053 Z M106.301973,280.501463 L132.174593,312.062411 L132.174593,284.969779 L124.413885,280.501463 L146.490584,280.501463 L138.729876,284.969779 L138.729876,342.352832 L134.244115,342.352832 L93.4518938,294.509463 L93.4518938,337.501568 L98.9149292,342.352832 L80.2964159,342.352832 L86.9002035,337.5642 L86.9002035,284.651253 L80,280.501463 L106.301973,280.501463 Z M162.265301,301.634253 C160.109549,301.634253 158.816097,303.182147 158.816097,305.843095 C158.816097,314.262568 173.735699,340.118674 180.80477,340.118674 C183.134779,340.118674 184.342,338.658463 184.342,335.738042 C184.342,328.522884 169.855345,301.634253 162.265301,301.634253 Z M371.373984,301.634253 C369.218232,301.634253 367.924781,303.182147 367.924781,305.843095 C367.924781,314.262568 382.844382,340.118674 389.913453,340.118674 C392.243462,340.118674 393.450683,338.658463 393.450683,335.738042 C393.450683,328.522884 378.964028,301.634253 371.373984,301.634253 Z M227.715914,301.891042 C223.230153,301.891042 220.03964,307.3042 220.03964,317.955147 C220.03964,329.466832 222.542109,335.221779 228.319525,335.221779 C229.61118,335.221779 230.733967,334.8782 231.941188,334.362832 L231.941188,303.181253 C230.733967,302.322305 229.181826,301.891042 227.715914,301.891042 Z M271.432234,301.549432 C269.190251,301.549432 267.898596,303.439116 267.898596,306.617221 C267.898596,313.746484 271.604694,320.963432 276.778499,326.288905 C279.194738,323.196695 280.143269,319.760905 280.143269,315.378484 C280.143269,307.905642 275.140127,301.549432 271.432234,301.549432 Z" id="Nodehost"></path>
        </g>
    </g>
</svg>