<?xml version="1.0" encoding="UTF-8"?>
<svg width="196px" height="32px" viewBox="0 0 196 32" version="1.1" xmlns="http://www.w3.org/2000/svg" xmlns:xlink="http://www.w3.org/1999/xlink">
    <!-- Generator: Sketch 63.1 (92452) - https://sketch.com -->
    <title>Combined Shape</title>
    <desc>Created with Sketch.</desc>
    <g id="Page-1" stroke="none" stroke-width="1" fill="none" fill-rule="evenodd">
        <g id="Desktop-Copy" transform="translate(-127.000000, -180.000000)" fill="#FFFFFF">
            <g id="Group-2" transform="translate(100.000000, 155.000000)">
                <path d="M215.758855,27.8444444 L215.758855,36.2644535 L221.710475,36.2644535 L221.710475,36.9279633 L215.758855,36.9279633 L215.758855,46.5911893 C215.758855,51.4016357 216.898527,53.1848184 220.022072,53.1848184 C220.951573,53.1848184 221.669144,53.0604103 222.512466,52.7286554 L222.555556,52.7701248 C220.993783,55.2176812 218.207039,57 214.323713,57 C209.299836,57 207.315962,54.0971444 207.315962,48.706127 L207.315962,36.9279633 L204.066667,36.9279633 L204.066667,36.8864939 L215.758855,27.8444444 Z M195.797572,35.6666667 C198.497408,35.6666667 200.656584,36.1179126 202.691193,36.8571696 L201.071811,43.3387015 L201.030288,43.3387015 L196.213663,36.5700131 C196.005185,36.4871137 195.714526,36.4460914 195.506913,36.4460914 C193.679917,36.4460914 192.766419,37.4716502 192.766419,38.6202762 C192.766419,40.0569132 193.430782,41.082472 195.880617,42.354165 L198.994814,43.9950592 C201.860741,45.5137409 203.355556,47.564004 203.355556,50.1082445 C203.355556,54.3745693 198.994814,57 193.88753,57 C191.935102,57 189.194608,56.7957429 186.288889,55.9334188 L187.57609,49.2467751 L187.616748,49.2467751 L192.766419,56.0573405 C193.347736,56.2205753 193.638395,56.2624523 194.136666,56.2624523 C195.964527,56.2624523 197.210206,55.3180835 197.210206,53.636167 C197.210206,52.4054964 196.461934,51.7081163 194.717983,50.8056245 L191.977489,49.3689875 C188.531111,47.564004 186.870206,45.6359533 186.870206,42.5182544 C186.870206,38.374142 190.274196,35.6666667 195.797572,35.6666667 Z M71.2555498,35.6666667 C78.1816882,35.6666667 83.1777778,39.7697567 83.1777778,46.2102663 C83.1777778,52.2003846 79.2739543,57 71.2975264,57 C65.2520219,57 59.7111111,52.8148653 59.7111111,46.2102663 C59.7111111,40.3440697 64.4133645,35.6666667 71.2555498,35.6666667 Z M123.125872,35.6666667 C127.057719,35.6666667 129.77655,37.9237508 129.77655,40.9183826 C129.77655,44.323238 127.099548,47.3178698 122.080168,49.1638758 C124.465245,51.4619822 127.476001,52.9798093 130.27936,52.9798093 C130.697641,52.9798093 131.115923,52.938787 131.492377,52.8575969 L131.533333,52.8977646 C129.77655,55.5240499 126.974063,57 123.084044,57 C117.185401,57 112.333333,52.9798093 112.333333,46.6213444 C112.333333,40.6312261 116.433365,35.6666667 123.125872,35.6666667 Z M108.777778,25.7111111 L108.777778,56.5891843 L100.532775,56.5891843 L100.532775,53.3361073 C98.3472178,55.560001 95.7915331,57 93.3595106,57 C89.154997,57 86.0222222,53.5831113 86.0222222,47.2424843 C86.0222222,40.4087069 89.9381907,35.5912712 95.5854295,35.5912712 C97.7701277,35.5912712 99.2549324,36.2508062 100.532775,37.1153202 L100.532775,31.4333705 L98.1831937,29.4161711 L108.777778,25.7111111 Z M172.233328,35.6666667 C179.159466,35.6666667 184.155556,39.7697567 184.155556,46.2102663 C184.155556,52.2003846 180.251732,57 172.275304,57 C166.2298,57 160.688889,52.8148653 160.688889,46.2102663 C160.688889,40.3440697 165.391142,35.6666667 172.233328,35.6666667 Z M143.724609,25 L143.724609,38.766833 C146.448079,36.4299216 148.879125,34.8030349 151.728293,34.8030349 C155.289754,34.8030349 157.133333,37.0148012 157.133333,41.2706046 L157.133333,56.2888889 L148.752553,56.2888889 L148.752553,43.0634824 C148.752553,39.8097091 147.956462,38.725118 146.238581,38.725118 C145.401463,38.725118 144.5626,38.9754082 143.724609,39.3508436 L143.724609,56.2888889 L135.343829,56.2888889 L135.343829,30.7983909 L132.955556,28.7543538 L143.724609,25 Z M39.6583811,26.4222222 L52.1101264,41.6623102 L52.1101264,28.5798737 L48.3751216,26.4222222 L59,26.4222222 L55.2649951,28.5798737 L55.2649951,56.2888889 L53.1061277,56.2888889 L33.4740084,33.1863776 L33.4740084,53.9463205 L36.1032098,56.2888889 L27.1426564,56.2888889 L30.3208689,53.9765639 L30.3208689,28.4260644 L27,26.4222222 L39.6583811,26.4222222 Z M66.9739369,37.1434714 C65.924522,37.1434714 65.294873,37.8827284 65.294873,39.1535668 C65.294873,43.1746121 72.5576988,55.5231953 75.9989052,55.5231953 C77.1331478,55.5231953 77.7208202,54.8258152 77.7208202,53.4310552 C77.7208202,49.9851775 70.6687519,37.1434714 66.9739369,37.1434714 Z M167.951715,37.1434714 C166.9023,37.1434714 166.272651,37.8827284 166.272651,39.1535668 C166.272651,43.1746121 173.535477,55.5231953 176.976683,55.5231953 C178.110926,55.5231953 178.698598,54.8258152 178.698598,53.4310552 C178.698598,49.9851775 171.64653,37.1434714 167.951715,37.1434714 Z M98.5129595,37.1967972 C96.3686232,37.1967972 94.8434565,39.7911969 94.8434565,44.8959463 C94.8434565,50.4132266 96.0397162,53.171438 98.8015045,53.171438 C99.4189566,53.171438 99.9556847,53.0067686 100.532775,52.7597646 L100.532775,37.8151649 C99.9556847,37.4034915 99.2137117,37.1967972 98.5129595,37.1967972 Z M119.234981,37.1033037 C118.147449,37.1033037 117.520897,38.0057955 117.520897,39.5236226 C117.520897,42.928478 119.318637,46.3752103 121.828327,48.9185963 C123.000387,47.4417915 123.460497,45.8008974 123.460497,43.7079027 C123.460497,40.1389579 121.033592,37.1033037 119.234981,37.1033037 Z" id="Combined-Shape"></path>
            </g>
        </g>
    </g>
</svg>