<svg xmlns="http://www.w3.org/2000/svg" viewBox="0 0 531.59 93.32"><defs><style>.cls-1{fill:#fff;}</style></defs><g id="Layer_2" data-name="Layer 2"><g id="Layer_1-2" data-name="Layer 1"><path class="cls-1" d="M120.48,80.16C116,87.24,108.12,92.4,97.08,92.4c-14.28,0-19.92-8.4-19.92-24V34.32H67.92V34.2L101.16,8V32.4h16.92v1.92H101.16v28c0,13.92,3.24,19.08,12.12,19.08A17.69,17.69,0,0,0,120.36,80Z"/><path class="cls-1" d="M177.36,89.28V91.2h-24V84.36c-5.64,4.8-12,8-18.6,8-7.8,0-13.08-4.44-13.08-12,0-11,11.76-18.36,31.68-20.52,0-13.2-5.28-19.8-14.4-19.8a19.87,19.87,0,0,0-13.2,4.56l-.6-.6c8.16-9.12,17-14,29-14,15.12,0,23.16,8.64,23.16,26V89.28Zm-24-6.6V61.44c-7.2,2-10,6.6-10,13,0,5.64,2.4,8.64,7.2,8.64A13.38,13.38,0,0,0,153.36,82.68Z"/><path class="cls-1" d="M236,80.16c-4.44,7.08-12.36,12.24-23.4,12.24-14.28,0-19.92-8.4-19.92-24V34.32h-9.24V34.2L216.72,8V32.4h16.92v1.92H216.72v28c0,13.92,3.24,19.08,12.12,19.08A17.69,17.69,0,0,0,235.92,80Z"/><path class="cls-1" d="M306.83,32.4l-8,5.88L272,93h-3.12L243.48,38.28l-8-5.88h41.88l-8,5.88L281,70.56l11.64-32.28-8.4-5.88Z"/><path class="cls-1" d="M315.12,89.28h0V45.48l-6.84-5.88,30.83-10.8V89.28h0V91.2h-24Zm-1.32-76C313.8,5.4,318.6,0,327.12,0s13.31,5.4,13.31,13.32-4.8,13.44-13.31,13.44S313.8,21.36,313.8,13.32Z"/><path class="cls-1" d="M350.27,89.28,354,69.72h.12L369,89.64a12.23,12.23,0,0,0,4,.6c5.28,0,8.88-2.76,8.88-7.68,0-3.6-2.16-5.64-7.2-8.28l-7.92-4.2C356.75,64.8,352,59.16,352,50c0-12.12,9.84-20,25.8-20a55.74,55.74,0,0,1,19.92,3.48l-4.68,19h-.12L379,32.64a6.1,6.1,0,0,0-2-.36c-5.28,0-7.92,3-7.92,6.36,0,4.2,1.92,7.2,9,10.92l9,4.8c8.28,4.44,12.6,10.44,12.6,17.88,0,12.48-12.6,20.16-27.36,20.16A77.4,77.4,0,0,1,350.27,89.28Z"/><path class="cls-1" d="M405.59,60.84c0-17.16,13.44-30.84,33-30.84,19.8,0,34.08,12,34.08,30.84,0,17.52-11.16,31.56-34,31.56C421.43,92.4,405.59,80.16,405.59,60.84ZM457.07,82c0-10.08-20.16-47.64-30.72-47.64-3,0-4.8,2.16-4.8,5.88,0,11.76,20.76,47.88,30.6,47.88C455.39,88.08,457.07,86,457.07,82Z"/><path class="cls-1" d="M531.59,30.24V62h-.12c-12.48-13.8-18.12-16.92-22.32-16.2V89.28h0V91.2h-24V89.28h0V45.72l-6.84-5.88,30.84-10.32v15c6.84-9,14.64-14.64,20.16-14.64A7,7,0,0,1,531.59,30.24Z"/><path class="cls-1" d="M0,88.52,7.08,57.8H7.2L23.88,89.24a14,14,0,0,0,6.24,1.2c8.52,0,14.76-5.64,14.76-13.32,0-5.76-3.12-10.68-10.08-14.4L21.12,55.28C10,49.16,3.36,41,3.36,28.88c0-15,11-26.76,30.6-26.76A66.71,66.71,0,0,1,61.2,7.4L54.12,33.92H54L38.16,5.48a19.75,19.75,0,0,0-5.88-.72c-6.12,0-11.4,4.44-11.4,11,0,5.28,3,10,11.88,15.24l15.72,9.48c10.08,6,15.84,13.32,15.84,24.24,0,16.56-13.92,28.56-34,28.56A96.77,96.77,0,0,1,0,88.52Z"/></g></g></svg>