<?xml version="1.0" encoding="UTF-8"?>
<svg width="532px" height="94px" viewBox="0 0 532 94" version="1.1" xmlns="http://www.w3.org/2000/svg" xmlns:xlink="http://www.w3.org/1999/xlink">
    <title>Combined Shape</title>
    <defs>
        <linearGradient x1="73.9010084%" y1="49.6997657%" x2="-9.84591056%" y2="51.9166418%" id="linearGradient-1">
            <stop stop-color="#D3EF7D" offset="0%"></stop>
            <stop stop-color="#9AE6BA" offset="100%"></stop>
        </linearGradient>
    </defs>
    <g id="Desktop" stroke="none" stroke-width="1" fill="none" fill-rule="evenodd">
        <path d="M61.2,7.4 L54.12,33.92 L54,33.92 L38.16,5.48 C36.2473448,4.94574691 34.2650514,4.70301711 32.28,4.76 C26.16,4.76 20.88,9.2 20.88,15.76 C20.88,21.04 23.88,25.76 32.76,31 L48.48,40.48 C58.56,46.48 64.32,53.8 64.32,64.72 C64.32,81.28 50.4,93.280603 30.32,93.280603 C20.0244699,93.3163449 9.78910223,91.7094732 -1.42108547e-13,88.52 L7.08,57.8 L7.2,57.8 L23.88,89.24 C25.8405301,90.1129887 27.9755176,90.5235632 30.12,90.44 C38.64,90.44 44.88,84.8 44.88,77.12 C44.88,71.36 41.76,66.44 34.8,62.72 L21.12,55.28 C10,49.16 3.36,41 3.36,28.88 C3.36,13.88 14.36,2.12 33.96,2.12 C43.3097074,1.9513318 52.5904288,3.75023816 61.2,7.4 Z M277.36,32.4 L269.36,38.28 L281,70.56 L292.64,38.28 L284.24,32.4 L306.83,32.4 L298.83,38.28 L272,93 L268.88,93 L243.48,38.28 L235.48,32.4 L277.36,32.4 Z M397.72,33.48 L393.04,52.48 L392.92,52.48 L379,32.64 C378.358152,32.409017 377.682106,32.2873288 377,32.28 C371.72,32.28 369.08,35.28 369.08,38.64 C369.08,42.84 371,45.84 378.08,49.56 L387.08,54.36 C395.36,58.8 399.68,64.8 399.68,72.24 C399.68,84.72 387.08,92.4005583 372.32,92.4005583 C364.85803,92.4283419 357.431175,91.3774672 350.27,89.28 L354,69.72 L354.12,69.72 L369,89.64 C370.29079,90.0606244 371.642607,90.2633969 373,90.24 C378.28,90.24 381.88,87.48 381.88,82.56 C381.88,78.96 379.72,76.92 374.68,74.28 L366.76,70.08 C356.75,64.8 352,59.16 352,50 C352,37.88 361.84,30 377.8,30 C384.596639,29.9357742 391.347713,31.1151787 397.72,33.48 Z M101.16,8 L101.16,32.4 L118.08,32.4 L118.08,34.32 L101.16,34.32 L101.16,62.32 C101.16,76.24 104.4,81.4 113.28,81.4 C115.711131,81.424818 118.121281,80.9482347 120.36,80 L120.48,80.16 C116,87.24 108.12,92.4 97.08,92.4 C82.8,92.4 77.16,84 77.16,68.4 L77.16,34.32 L67.92,34.32 L67.92,34.2 L101.16,8 Z M216.72,8 L216.72,32.4 L233.64,32.4 L233.64,34.32 L216.72,34.32 L216.72,62.32 C216.72,76.24 219.96,81.4 228.84,81.4 C231.271131,81.424818 233.681281,80.9482347 235.92,80 L236,80.16 C231.56,87.24 223.64,92.4 212.6,92.4 C198.32,92.4 192.68,84 192.68,68.4 L192.68,34.32 L183.44,34.32 L183.44,34.2 L216.72,8 Z M438.59,30 C458.39,30 472.67,42 472.67,60.84 C472.67,78.36 461.51,92.4 438.67,92.4 C421.43,92.4 405.59,80.16 405.59,60.84 C405.59,43.68 419.03,30 438.59,30 Z M154.16,30 C169.28,30 177.32,38.64 177.32,56 L177.32,89.28 L177.36,89.28 L177.36,91.2 L153.36,91.2 L153.36,84.36 C147.72,89.16 141.36,92.36 134.76,92.36 C126.96,92.36 121.68,87.92 121.68,80.36 C121.68,69.36 133.44,62 153.36,59.84 C153.36,46.64 148.08,40.04 138.96,40.04 C134.153188,39.9127433 129.463302,41.5328859 125.76,44.6 L125.16,44 C133.32,34.88 142.16,30 154.16,30 Z M509.15,29.52 L509.15,44.52 C515.99,35.52 523.79,29.88 529.31,29.88 C530.084685,29.8730051 530.855158,29.9946587 531.59,30.24 L531.59,62 L531.47,62 C518.99,48.2 513.35,45.08 509.15,45.8 L509.15,91.2 L485.15,91.2 L485.15,45.72 L478.31,39.84 L509.15,29.52 Z M339.11,28.8 L339.11,91.2 L315.11,91.2 L315.12,89.28 L315.12,45.48 L308.28,39.6 L339.11,28.8 Z M426.35,34.36 C423.35,34.36 421.55,36.52 421.55,40.24 C421.55,52 442.31,88.12 452.15,88.12 C455.39,88.08 457.07,86 457.07,82 C457.07,71.92 436.91,34.36 426.35,34.36 Z M153.36,61.44 C146.16,63.44 143.36,68.04 143.36,74.44 C143.36,80.08 145.76,83.08 150.56,83.08 C151.504844,83.0459679 152.44342,82.9118856 153.36,82.68 L153.36,61.44 Z M327.12,-9.23705556e-14 C335.64,-9.23705556e-14 340.43,5.4 340.43,13.32 C340.43,21.24 335.63,26.76 327.12,26.76 C318.61,26.76 313.8,21.36 313.8,13.32 L313.8,13.28 C313.8,5.4 318.6,-9.23705556e-14 327.12,-9.23705556e-14 Z" id="Combined-Shape" fill="url(#linearGradient-1)"></path>
    </g>
</svg>