<?xml version="1.0" encoding="UTF-8"?>
<svg width="640px" height="640px" viewBox="0 0 640 640" version="1.1" xmlns="http://www.w3.org/2000/svg" xmlns:xlink="http://www.w3.org/1999/xlink">
    <!-- Generator: Sketch 52.5 (67469) - http://www.bohemiancoding.com/sketch -->
    <title>insta</title>
    <desc>Created with Sketch.</desc>
    <g id="Page-1" stroke="none" stroke-width="1" fill="none" fill-rule="evenodd">
        <g id="insta" fill="#233644" fill-rule="nonzero">
            <path d="M320.4,640 C238.7,640 157.1,640 75.4,640 C32.2,640 0,607.7 0,564.4 C0,401.4 0,238.4 0,75.5 C2.84217094e-14,32.6 32.5,0 75.2,0 C238.5,0 401.8,0 565.1,0 C607.3,0 639.9,32.6 639.9,74.7 C639.9,238.2 639.9,401.7 639.9,565.1 C639.9,607.5 607.6,639.9 565.3,639.9 C483.7,640 402.1,640 320.4,640 Z M73.9,271.1 C73.9,273.2 73.9,274.8 73.9,276.4 C73.9,363.9 73.9,451.4 73.9,538.9 C73.9,556.3 83.7,566.1 101.2,566.1 C247.2,566.1 393.2,566.1 539.2,566.1 C556.4,566.1 566.2,556.4 566.2,539.2 C566.2,451.7 566.2,364.2 566.2,276.7 C566.2,274.9 566.2,273.1 566.2,271.2 C547.5,271.2 529.3,271.2 511,271.2 C534.3,364.7 487.9,446.5 429.4,483.7 C361.7,526.7 290.6,530.8 221.8,490 C139,440.8 111.4,364.9 128.4,271.1 C110.9,271.1 92.8,271.1 73.9,271.1 Z M320.2,443 C388.3,442.9 443.1,388 443,319.8 C443,251.8 387.9,196.8 319.8,196.9 C251.9,197 196.8,252.2 196.9,320.2 C197.1,388.2 252.1,443.1 320.2,443 Z M566.1,135.3 C566.1,123.6 566.1,112 566.1,100.3 C566.1,100.1 566.1,100 566.1,99.8 C566,84.1 555.8,73.9 540.1,73.9 C516.5,73.9 492.8,73.9 469.2,73.9 C453.6,73.9 443.1,84.3 443.1,99.8 C443,123.6 443,147.4 443.1,171.2 C443.2,186.4 453.7,196.8 469,196.9 C492.8,196.9 516.6,196.9 540.4,196.9 C555.8,196.9 566.1,186.7 566.1,171.2 C566.2,159.3 566.1,147.3 566.1,135.3 Z" id="Shape"></path>
        </g>
    </g>
</svg>