<?xml version="1.0" encoding="UTF-8"?>
<svg width="602px" height="574px" viewBox="0 0 602 574" version="1.1" xmlns="http://www.w3.org/2000/svg" xmlns:xlink="http://www.w3.org/1999/xlink">
    <!-- Generator: Sketch 52.5 (67469) - http://www.bohemiancoding.com/sketch -->
    <title>linked</title>
    <desc>Created with Sketch.</desc>
    <g id="Page-1" stroke="none" stroke-width="1" fill="none" fill-rule="evenodd">
        <g id="linked" transform="translate(0.000000, -1.000000)" fill="#233644">
            <path d="M601.1,574.1 C558,574.1 516.8,574.1 472.6,574.1 C472.6,567.5 472.6,560.9 472.6,554.3 C472.6,494.2 472.8,434.1 472.5,374 C472.4,361.5 471.5,348.9 469.5,336.7 C463.1,298.3 438.8,278.4 402.3,280.5 C368.6,282.5 339.1,310.5 338,344.9 C336.5,389.9 337.3,435 337.2,480.1 C337.1,510.7 337.2,541.2 337.2,573.4 C293.7,573.4 251.7,573.4 208.7,573.4 C208.7,445 208.7,317.6 208.7,188.7 C251,188.7 292.6,188.7 336.2,188.7 C336.2,203.9 336.2,219.3 336.2,236.3 C340,234.6 342,234.3 342.8,233.2 C383.1,179.3 437.7,168.6 498.7,185 C559.1,201.2 587,246.9 597.2,305.3 C600,321.2 601,337.6 601.1,353.8 C601.5,420.8 601.3,487.8 601.3,554.7 C601.1,560.9 601.1,567 601.1,574.1 Z" id="Path"></path>
            <path d="M8.7,188.4 C51.2,188.4 92.7,188.4 135.3,188.4 C135.3,317.3 135.3,445.1 135.3,574 C92.7,574 51.2,574 8.7,574 C8.7,445.1 8.7,317.3 8.7,188.4 Z" id="Path"></path>
            <path d="M72.7,134.5 C30.2,134.7 0.2,107.3 0.2,67.9 C0.1,28.7 29.8,1.3 72.5,1 C114.8,0.7 144.8,28.3 145.3,67.7 C145.8,106.2 115.3,134.3 72.7,134.5 Z" id="Path"></path>
        </g>
    </g>
</svg>